<?xml version="1.0" encoding="UTF-8" standalone="no"?>
<!-- Created with Inkscape (http://www.inkscape.org/) -->

<svg
   xmlns:dc="http://purl.org/dc/elements/1.1/"
   xmlns:cc="http://creativecommons.org/ns#"
   xmlns:rdf="http://www.w3.org/1999/02/22-rdf-syntax-ns#"
   xmlns:svg="http://www.w3.org/2000/svg"
   xmlns="http://www.w3.org/2000/svg"
   xmlns:sodipodi="http://sodipodi.sourceforge.net/DTD/sodipodi-0.dtd"
   xmlns:inkscape="http://www.inkscape.org/namespaces/inkscape"
   width="210mm"
   height="297mm"
   viewBox="0 0 210 297"
   version="1.1"
   id="svg8"
   sodipodi:docname="firma.svg"
   inkscape:version="0.92.3 (2405546, 2018-03-11)">
  <defs
     id="defs2">
    <inkscape:perspective
       sodipodi:type="inkscape:persp3d"
       inkscape:vp_x="259.15904 : 145.65804 : 1"
       inkscape:vp_y="-201.08214 : 1087.3811 : 0"
       inkscape:vp_z="554.74442 : 153.92505 : 1"
       inkscape:persp3d-origin="416.90528 : 95.966191 : 1"
       id="perspective3902" />
  </defs>
  <sodipodi:namedview
     id="base"
     pagecolor="#ffffff"
     bordercolor="#666666"
     borderopacity="1.0"
     inkscape:pageopacity="0.0"
     inkscape:pageshadow="2"
     inkscape:zoom="0.35"
     inkscape:cx="603.93567"
     inkscape:cy="471.64593"
     inkscape:document-units="mm"
     inkscape:current-layer="layer1"
     showgrid="false"
     inkscape:window-width="1366"
     inkscape:window-height="705"
     inkscape:window-x="-8"
     inkscape:window-y="-8"
     inkscape:window-maximized="1" />
  <metadata
     id="metadata5">
    <rdf:RDF>
      <cc:Work
         rdf:about="">
        <dc:format>image/svg+xml</dc:format>
        <dc:type
           rdf:resource="http://purl.org/dc/dcmitype/StillImage" />
      </cc:Work>
    </rdf:RDF>
  </metadata>
  <g
     inkscape:label="Layer 1"
     inkscape:groupmode="layer"
     id="layer1"
     style="display:inline">
    <flowRoot
       xml:space="preserve"
       id="flowRoot70"
       style="fill:black;fill-opacity:1;stroke:none;font-family:sans-serif;font-style:normal;font-weight:normal;font-size:40px;line-height:1.25;letter-spacing:0px;word-spacing:0px"><flowRegion
         id="flowRegion72"><rect
           id="rect74"
           width="0"
           height="271.42856"
           x="360"
           y="285.37683" /></flowRegion><flowPara
         id="flowPara76"></flowPara></flowRoot>    <path
       style="display:inline;fill:#800000;stroke-width:1.06907809"
       d="m 8.7240895,254.47428 c -1.61698,-0.24496 -2.9399639,-0.87292 -2.9399639,-1.39549 0,-1.57038 7.4330624,-17.8752 24.6018124,-53.96538 8.951005,-18.81578 17.436023,-36.69263 18.855597,-39.72635 l 2.581045,-5.51585 -7.095506,-9.84434 c -15.21057,-21.10323 -18.189717,-32.30421 -17.19514,-64.650213 0.378351,-12.30489 1.222891,-22.48289 2.142299,-25.81804 2.316417,-8.40279 6.964751,-16.06036 13.218559,-21.77599 9.164852,-8.37616 21.066112,-11.67555 42.270381,-11.71863 8.543213,-0.0174 10.423512,-0.31045 10.423512,-1.62479 0,-1.26071 1.483615,-1.60362 6.938005,-1.60362 h 6.938 l 0.27828,47.84124 0.27828,47.841253 h 34.2105 34.21049 l 0.27828,-47.841253 0.27827,-47.84124 h 8.00709 8.00707 V 133.89964 250.96369 h -8.00879 -8.00881 l -0.27655,-57.40613 -0.27656,-57.40614 -34.21049,0.0276 -34.2105,0.0276 -0.27785,49.89501 -0.27784,49.89501 h -6.93843 -6.938445 V 222.63312 209.26965 H 69.603424 43.620161 l -11.409812,22.98518 -11.409809,22.98518 -4.568242,-0.16018 c -2.512534,-0.0881 -5.891228,-0.3606 -7.5082085,-0.60555 z M 95.586685,178.23284 c 0,-12.77717 -0.340085,-17.24434 -1.336347,-17.5535 -0.734991,-0.22808 -6.967239,-0.65343 -13.849437,-0.94522 l -12.513088,-0.53053 -8.601205,17.68603 c -4.730662,9.72731 -8.601202,17.86513 -8.601202,18.08402 0,0.21889 10.102787,0.398 22.45064,0.398 h 22.450639 z m 0,-87.208343 V 44.407587 L 84.796324,38.751608 C 71.48612,31.774804 61.360468,40.16882 56.803536,42.40171 47.238333,47.08864 43.704084,59.801037 41.922099,78.939407 39.114786,109.08968 48.427377,136.51762 62.95573,140.6822 c 6.08619,1.74462 18.888759,4.31041 27.239707,-0.15681 l 5.391248,-2.88397 z"
       id="path136"
       inkscape:connector-curvature="0"
       sodipodi:nodetypes="cssscsssscsscccccccccccccccccccccccccccscscscssscsccssssscc" />
  </g>
</svg>
