<?xml version="1.0" encoding="UTF-8" standalone="no"?>
<!-- Created with Inkscape (http://www.inkscape.org/) -->

<svg
   xmlns:dc="http://purl.org/dc/elements/1.1/"
   xmlns:cc="http://creativecommons.org/ns#"
   xmlns:rdf="http://www.w3.org/1999/02/22-rdf-syntax-ns#"
   xmlns:svg="http://www.w3.org/2000/svg"
   xmlns="http://www.w3.org/2000/svg"
   xmlns:sodipodi="http://sodipodi.sourceforge.net/DTD/sodipodi-0.dtd"
   xmlns:inkscape="http://www.inkscape.org/namespaces/inkscape"
   width="210mm"
   height="297mm"
   viewBox="0 0 210 297"
   version="1.1"
   id="svg8"
   sodipodi:docname="firma.svg"
   inkscape:version="0.92.3 (2405546, 2018-03-11)">
  <defs
     id="defs2">
    <inkscape:perspective
       sodipodi:type="inkscape:persp3d"
       inkscape:vp_x="259.15904 : 145.65804 : 1"
       inkscape:vp_y="-201.08214 : 1087.3811 : 0"
       inkscape:vp_z="554.74442 : 153.92505 : 1"
       inkscape:persp3d-origin="416.90528 : 95.966191 : 1"
       id="perspective3902" />
  </defs>
  <sodipodi:namedview
     id="base"
     pagecolor="#ffffff"
     bordercolor="#666666"
     borderopacity="1.0"
     inkscape:pageopacity="0.0"
     inkscape:pageshadow="2"
     inkscape:zoom="0.35"
     inkscape:cx="100"
     inkscape:cy="560"
     inkscape:document-units="mm"
     inkscape:current-layer="layer1"
     showgrid="false"
     inkscape:window-width="1366"
     inkscape:window-height="705"
     inkscape:window-x="-8"
     inkscape:window-y="-8"
     inkscape:window-maximized="1" />
  <metadata
     id="metadata5">
    <rdf:RDF>
      <cc:Work
         rdf:about="">
        <dc:format>image/svg+xml</dc:format>
        <dc:type
           rdf:resource="http://purl.org/dc/dcmitype/StillImage" />
      </cc:Work>
    </rdf:RDF>
  </metadata>
  <g
     inkscape:label="Layer 1"
     inkscape:groupmode="layer"
     id="layer1"
     style="display:inline">
    <rect
       style="display:inline;fill:none;stroke-width:0.33648574"
       id="rect3939"
       width="198.81548"
       height="271.3869"
       x="8.3154764"
       y="10.494047" />
    <ellipse
       style="fill:#ff0000;stroke-width:0.35099286"
       id="path3807"
       cx="93.778503"
       cy="139.11223"
       rx="70.248543"
       ry="88.587715" />
    <g
       id="g3900"
       style="fill:#000000"
       transform="matrix(1.3665766,0,0,1.2877682,-59.11538,-58.391532)">
      <g
         inkscape:label="Layer 1"
         id="layer1-8"
         transform="translate(3.7797634,-4.5357156)"
         style="display:inline;fill:#000000">
        <flowRoot
           xml:space="preserve"
           id="flowRoot10"
           style="font-style:normal;font-weight:normal;font-size:40px;line-height:1.25;font-family:sans-serif;letter-spacing:0px;word-spacing:0px;fill:#000000;fill-opacity:1;stroke:none"><flowRegion
             id="flowRegion12"
             style="fill:#000000"><rect
               id="rect14"
               width="508.57144"
               height="217.14285"
               x="222.85715"
               y="253.94826"
               style="fill:#000000" /></flowRegion><flowPara
             id="flowPara16" /></flowRoot>        <flowRoot
           xml:space="preserve"
           id="flowRoot29"
           style="font-style:normal;font-weight:normal;font-size:40px;line-height:1.25;font-family:sans-serif;letter-spacing:0px;word-spacing:0px;fill:#000000;fill-opacity:1;stroke:none"><flowRegion
             id="flowRegion31"
             style="fill:#000000"><rect
               id="rect33"
               width="397.14285"
               height="574.28571"
               x="371.42856"
               y="365.37683"
               style="fill:#000000" /></flowRegion><flowPara
             id="flowPara35" /></flowRoot>        <flowRoot
           xml:space="preserve"
           id="flowRoot37"
           style="font-style:normal;font-weight:normal;font-size:40px;line-height:1.25;font-family:sans-serif;letter-spacing:0px;word-spacing:0px;fill:#000000;fill-opacity:1;stroke:none"><flowRegion
             id="flowRegion39"
             style="fill:#000000"><rect
               id="rect41"
               width="1450.9524"
               height="840.7619"
               x="42.857143"
               y="482.51968"
               style="fill:#000000" /></flowRegion><flowPara
             id="flowPara43" /></flowRoot>        <flowRoot
           xml:space="preserve"
           id="flowRoot45"
           style="font-style:normal;font-weight:normal;font-size:40px;line-height:1.25;font-family:sans-serif;letter-spacing:0px;word-spacing:0px;fill:#000000;fill-opacity:1;stroke:none"><flowRegion
             id="flowRegion47"
             style="fill:#000000"><rect
               id="rect49"
               width="337.14285"
               height="360"
               x="-2.8571429"
               y="385.37683"
               style="fill:#000000" /></flowRegion><flowPara
             id="flowPara51" /></flowRoot>        <flowRoot
           xml:space="preserve"
           id="flowRoot53"
           style="font-style:normal;font-weight:normal;font-size:40px;line-height:1.25;font-family:sans-serif;letter-spacing:0px;word-spacing:0px;fill:#000000;fill-opacity:1;stroke:none"><flowRegion
             id="flowRegion55"
             style="fill:#000000"><rect
               id="rect57"
               width="297.14285"
               height="554.28571"
               x="37.142857"
               y="28.233971"
               style="fill:#000000" /></flowRegion><flowPara
             id="flowPara59" /></flowRoot>        <flowRoot
           xml:space="preserve"
           id="flowRoot61"
           style="font-style:normal;font-weight:normal;font-size:40px;line-height:1.25;font-family:sans-serif;letter-spacing:0px;word-spacing:0px;fill:#000000;fill-opacity:1;stroke:none"><flowRegion
             id="flowRegion63"
             style="fill:#000000"><rect
               id="rect65"
               width="588.57141"
               height="605.71429"
               x="277.14285"
               y="593.94824"
               style="fill:#000000" /></flowRegion><flowPara
             id="flowPara67" /></flowRoot>        <flowRoot
           transform="matrix(0.26458333,0,0,0.26458333,-3.7797633,4.5357157)"
           style="font-style:normal;font-weight:normal;font-size:40px;line-height:1.25;font-family:sans-serif;letter-spacing:0px;word-spacing:0px;fill:#000000;fill-opacity:1;stroke:none"
           id="flowRoot3769"
           xml:space="preserve"><flowRegion
             id="flowRegion3771"
             style="fill:#000000"><rect
               y="231.09111"
               x="142.85715"
               height="554.28571"
               width="548.57141"
               id="rect3773"
               style="fill:#000000" /></flowRegion><flowPara
             id="flowPara3775" /></flowRoot>        <path
           inkscape:connector-curvature="0"
           d="m 51.335086,163.34323 c 0.0022,-0.38815 0.01699,-0.77647 0.0068,-1.16443 -0.06977,-2.65055 -0.334087,-5.29173 -0.495568,-7.9346 -0.202507,-3.31431 -0.280776,-5.44759 -0.428731,-8.81355 -0.360561,-7.43489 -0.154154,-14.91381 0.745677,-22.28676 0.557054,-4.56436 0.983731,-6.52914 1.79985,-10.98653 1.45064,-6.63683 2.988664,-13.413394 6.001451,-19.324184 0.419554,-0.82313 0.908089,-1.59286 1.362134,-2.38929 2.982491,-4.64714 5.43236,-6.04605 10.074985,-8.96173 0.484707,-0.30441 1.019234,-0.48517 1.546882,-0.65921 0.47871,-0.15789 0.975534,-0.22243 1.463302,-0.33365 0.459307,-0.004 0.920723,-0.0655 1.377923,-0.0127 1.944053,0.22452 3.458732,1.77834 4.448359,3.72563 0.320638,0.63092 0.545691,1.32477 0.818537,1.98716 1.586283,5.57921 1.796644,11.54814 1.432471,17.385574 -0.101436,1.62595 -0.281855,3.24342 -0.422782,4.86514 -1.000312,9.23056 -3.194138,18.1704 -5.849431,26.89006 -1.662866,5.10536 -3.44615,10.15099 -5.08765,15.26672 -0.990879,2.76456 -1.494314,5.69117 -1.742759,8.66929 -0.100266,1.6102 -0.133941,3.22882 -0.08293,4.84268 0.152577,2.35955 0.12757,0.88549 -4.848274,2.86298 -0.178102,0.0708 0.01505,-0.44922 0.02712,-0.67354 0.06955,-1.29319 0.270327,-2.5123 0.506317,-3.77612 0.786775,-3.3313 2.19184,-6.41366 4.080681,-9.03511 0.434371,-0.60284 0.915937,-1.15448 1.373907,-1.73172 0.521875,-0.54315 1.019932,-1.12098 1.565624,-1.62944 0.554926,-0.51706 1.127925,-1.01072 1.731458,-1.44263 3.306981,-2.36664 5.020018,-3.85671 8.152841,-5.16215 1.703974,-0.71004 2.057705,-0.7237 3.78693,-1.13864 2.61983,-0.33034 5.00714,-0.16259 7.21387,1.75781 0.3757,0.32695 0.69771,0.73431 1.04657,1.10147 2.39923,2.98793 3.54292,6.88514 4.51321,10.77489 0.96637,4.56856 1.84011,9.1652 2.61002,13.78694 0.9137,5.21816 1.32752,10.5342 1.78064,15.83066 0.16813,2.02915 0.33624,4.05824 0.47296,6.09083 0.0722,1.07321 0.13244,2.10154 0.32826,3.15163 0.31099,1.08007 0.86413,0.95005 1.68623,0.96326 0.73299,0.0275 1.47351,-0.12418 2.12279,-0.55173 0.19567,-0.12884 0.75396,-0.57255 0.55905,-0.44205 -1.32581,0.88775 -2.63542,1.80979 -3.95312,2.71468 1.46095,-1.15953 2.76923,-2.57102 4.03555,-4.01556 1.0569,-1.22202 2.11598,-2.44076 3.20484,-3.62181 0.1151,-0.12349 0.2302,-0.24697 0.34531,-0.37045 0,0 5.03381,-2.43838 5.03381,-2.43838 v 0 c -0.12267,0.11705 -0.24534,0.23408 -0.36801,0.35113 -1.08647,1.21972 -2.22682,2.37367 -3.27972,3.63912 -1.24002,1.4821 -2.55802,2.8762 -3.9613,4.13265 -1.74882,1.22278 -3.49024,2.46091 -5.24649,3.66833 -0.89201,0.61324 -1.88742,0.80762 -2.90449,0.73281 -1.0678,-0.10864 -1.69304,-0.39514 -2.02935,-1.71666 -0.16614,-1.10874 -0.19035,-2.18293 -0.22952,-3.30881 -0.0715,-2.05661 -0.17989,-4.11142 -0.32247,-6.1627 -0.40669,-5.27745 -0.88718,-10.55859 -1.79385,-15.75175 -0.78308,-4.59665 -1.6394,-9.17606 -2.6161,-13.71971 -0.93702,-3.77859 -2.07764,-7.5511 -4.45015,-10.40486 -0.33353,-0.33245 -0.64326,-0.70247 -1.00057,-0.99735 -2.05205,-1.69355 -4.51333,-1.87045 -6.907964,-1.46028 -1.660514,0.43289 -2.061571,0.4661 -3.694023,1.19586 -0.648855,0.29007 -2.364004,1.60371 -1.911325,0.97586 0.645702,-0.89557 1.647491,-1.31904 2.534443,-1.8401 1.235168,-0.72565 -4.683175,3.33781 -3.314864,2.94515 -0.461887,0.5569 -0.948136,1.08626 -1.385661,1.67071 -1.874855,2.50445 -3.284542,5.47813 -4.055846,8.71292 -0.224951,1.19925 -0.423325,2.34948 -0.43565,3.58271 -0.0022,0.21849 0.16804,0.53138 0.01772,0.65519 -4.970459,4.09398 -4.947554,5.56179 -4.86944,3.0579 0.03159,-1.65826 0.03801,-3.31848 0.167101,-4.97175 0.264428,-3.0465 0.746346,-6.06634 1.786285,-8.88576 1.743867,-5.16951 3.631933,-10.26447 5.393633,-15.42474 1.037651,-3.25432 1.478333,-4.50719 2.37934,-7.88233 1.649998,-6.18082 2.924634,-12.51071 3.648426,-18.94556 0.125584,-1.5993 0.291591,-3.19477 0.376749,-4.79789 0.302215,-5.68927 -0.0066,-11.514124 -1.641469,-16.907054 -0.2713,-0.61743 -0.498563,-1.26566 -0.813897,-1.85231 -1.404478,-2.61292 -2.994471,-3.41231 -5.51171,-3.12466 -0.463147,0.12838 -0.93618,0.21343 -1.389438,0.38514 -0.617586,0.23395 -6.05427,3.10945 1.415046,-1.42823 0.529202,-0.3215 -0.985508,0.79565 -1.444541,1.24605 -1.38066,1.35467 -1.66927,1.90187 -2.86443,3.5504 -0.476391,0.78673 -0.987685,1.54477 -1.429175,2.36019 -3.175958,5.86591 -4.879402,12.669854 -6.391388,19.353954 -0.863861,4.48754 -1.300338,6.366 -1.875794,10.96797 -0.913903,7.30858 -1.081346,14.72704 -0.611392,22.09205 0.354488,5.88177 0.867935,11.73636 1.528821,17.57936 0,0 -4.84263,2.95562 -4.84263,2.95562 z"
           id="path3785"
           style="fill:#000000;stroke-width:0.14098828" />
        <path
           inkscape:connector-curvature="0"
           d="m 60.336081,167.66938 c 1.265047,2.7829 2.472801,5.59928 3.656512,8.43328 2.305892,5.46055 4.295997,11.08889 6.11479,16.8032 1.491698,4.92229 2.857581,9.88977 3.995828,14.94548 0.530972,2.69383 1.144607,5.36437 1.624497,8.07238 0.174575,0.85748 0.359358,1.71107 0.508012,2.57565 0,0 -4.793688,3.06201 -4.793688,3.06201 v 0 c -0.125289,-0.87653 -0.289061,-1.7429 -0.448625,-2.6113 -0.392615,-2.7362 -0.982685,-5.42256 -1.446602,-8.14186 -1.045291,-5.07725 -2.337082,-10.06668 -3.810676,-14.99028 -1.800927,-5.69512 -3.798399,-11.2934 -6.18931,-16.67464 -1.228555,-2.77614 -2.488348,-5.53294 -3.920651,-8.16803 0,0 4.709913,-3.30589 4.709913,-3.30589 z"
           id="path3787"
           style="fill:#000000;stroke-width:0.14098828" />
        <path
           inkscape:connector-curvature="0"
           d="m 88.94147,153.72588 c 0.56364,-1.20288 0.78231,-2.54231 0.92703,-3.89348 0.29091,-4.62422 0.29616,-9.26935 0.34074,-13.90433 0.199,-7.63431 0.66278,-15.27833 1.67851,-22.82473 0.22313,-1.65774 0.50093,-3.30426 0.7514,-4.95639 1.26945,-7.94979 3.19014,-15.712624 5.56058,-23.283534 0.58328,-1.8693 1.27959,-3.68053 2.10413,-5.41382 0.26394,-0.55482 0.64879,-1.35403 1.01556,-1.85105 0.16204,-0.21959 0.35929,-0.39793 0.53894,-0.5969 1.7443,-1.16376 3.41863,-2.492747 5.2329,-3.491285 0.44125,-0.242851 1.56769,0.772091 1.72527,0.932534 1.72141,1.752745 2.79083,4.214711 3.92553,6.493791 3.91894,8.61574 7.11062,17.67059 10.40422,26.644604 2.45949,6.91003 4.99587,13.7807 7.38515,20.72635 1.99167,5.75129 3.7922,11.59132 5.52454,17.4605 1.88986,6.53826 3.48721,13.18843 4.99759,19.86423 0.95986,4.27215 1.98636,8.5218 3.14873,12.72136 0.2703,0.91883 0.50867,1.84929 0.72917,2.7866 0,0 -4.74222,3.07627 -4.74222,3.07627 v 0 c -0.18256,-0.94716 -0.38372,-1.8884 -0.62407,-2.81741 -1.04937,-4.278 -1.95855,-8.60266 -2.88962,-12.91914 -1.48067,-6.67054 -3.04095,-13.31952 -4.96663,-19.82926 -1.76632,-5.8426 -3.62479,-11.64445 -5.5563,-17.41161 -2.31375,-6.9906 -4.74331,-13.92413 -7.14331,-20.87263 -3.19079,-8.98736 -6.3224,-18.064244 -10.5523,-26.440104 -1.1655,-2.10055 -2.29935,-4.54081 -4.0936,-6.00563 -0.26642,-0.21749 -0.56876,-0.38623 -0.8829,-0.47306 -0.20388,-0.0563 -0.79715,0.2001 -0.62594,0.056 1.27438,-1.072389 2.66594,-1.929586 3.99891,-2.894379 -0.20144,0.156682 -0.4238,0.280272 -0.60433,0.470045 -0.45534,0.478669 -0.82462,1.217128 -1.13934,1.809764 -0.91592,1.72472 -1.69313,3.53821 -2.33546,5.43425 -2.55494,7.55467 -4.6314,15.3388 -5.90729,23.357724 -0.25445,1.64517 -0.54302,3.28329 -0.76334,4.93551 -0.997,7.47647 -1.40149,15.06273 -1.49365,22.626 0.0374,4.5741 0.14965,9.15115 0.0776,13.72457 -0.0977,1.39597 -0.27561,2.77553 -0.7687,4.06107 0,0 -4.97752,2.69754 -4.97752,2.69754 z"
           id="path3789"
           style="fill:#000000;stroke-width:0.14098828" />
        <path
           inkscape:connector-curvature="0"
           d="m 85.28111,170.34874 c 0.16043,-0.10878 0.64156,-0.43543 0.48128,-0.32633 -5.173526,3.52149 -4.915722,3.55377 -3.02101,1.90144 1.366884,-1.19203 2.63748,-2.48493 3.9114,-3.81577 5.25101,-5.78144 10.35885,-11.74853 15.46944,-17.70768 6.68505,-7.75633 13.43572,-15.42523 20.49606,-22.69107 4.00979,-4.04059 8.1121,-7.9673 12.39997,-11.57905 0.99358,-0.80512 1.95019,-1.67764 2.95232,-2.46744 0,0 5.07845,-2.33785 5.07845,-2.33785 v 0 c -1.12879,0.69503 -2.09064,1.73992 -3.17738,2.521 -4.47851,3.60924 -8.72161,7.63202 -12.88309,11.74341 -7.12249,7.22415 -13.91835,14.87718 -20.58843,22.69486 -4.97321,5.86402 -9.93551,11.74259 -14.99172,17.50333 -3.16519,3.43746 -6.40951,6.53875 -10.407442,8.61307 0,0 4.280152,-4.05192 4.280152,-4.05192 z"
           id="path3791"
           style="fill:#000000;stroke-width:0.14098828" />
        <path
           inkscape:connector-curvature="0"
           id="path3793"
           d="m 63.739608,167.23587 c -0.1381,-2.80193 0.198753,-7.17713 0.751935,-9.76645 0.3695,-1.72956 2.155753,-7.41012 3.969449,-12.62348 3.853051,-11.07534 5.259372,-15.90167 6.736872,-23.1202 3.038468,-14.84481 2.821811,-28.569274 -0.547269,-34.667534 -1.914476,-3.46533 -5.767461,-4.01545 -8.22872,-1.17488 -7.194878,8.30372 -12.843123,33.104154 -12.076659,53.026454 0.218007,5.6665 0.9994,15.70242 1.533029,19.68964 0.217242,1.62319 0.209624,1.63452 -1.997545,2.96913 l -2.21562,1.33972 -0.202844,-1.86694 c -1.015239,-9.34404 -1.218323,-27.6793 -0.392773,-35.46108 1.224651,-11.54378 4.397382,-24.91398 7.446756,-31.381374 3.755059,-7.96407 12.855747,-15.00241 17.185276,-13.29083 3.692362,1.45968 5.735249,7.9942 5.723428,18.30733 -0.01331,11.610594 -2.437976,23.911304 -8.155476,41.373964 -1.813705,5.5395 -3.228263,10.15494 -3.14346,10.25652 0.0848,0.10157 0.586571,-0.22272 1.115044,-0.72066 2.155645,-2.0311 7.755707,-5.66305 10.159133,-6.58875 2.035043,-0.78382 3.203636,-0.95532 5.662616,-0.83104 l 3.0984,0.15661 0.24763,-7.97101 c 0.52971,-17.05076 2.34111,-29.94765 6.15631,-43.831824 1.769,-6.43769 3.70223,-11.67613 4.85114,-13.14503 1.06433,-1.360751 5.08915,-4.049096 6.06206,-4.049096 1.88025,0 5.72857,7.511026 10.95543,21.382446 3.72738,9.891964 9.79736,26.767504 9.66464,26.869284 -0.0577,0.0443 -0.89595,0.83983 -1.86264,1.76788 -0.96668,0.92804 -1.80698,1.60972 -1.86733,1.51484 -0.0604,-0.0949 -1.57279,-4.43797 -3.36098,-9.65131 -4.21784,-12.29681 -8.47221,-23.547084 -10.67612,-28.231924 -2.13053,-4.52886 -4.76397,-9.05186 -5.45533,-9.36964 -0.61132,-0.281 -1.56006,1.93798 -3.57249,8.35564 -2.6481,8.44481 -4.85659,19.193774 -5.88364,28.636354 -0.9413,8.65413 -1.1782,32.67906 -0.33458,33.93039 0.17637,0.26158 0.74777,1.83484 1.2698,3.49613 l 0.94913,3.0205 -1.95875,2.34627 -1.95874,2.34628 -1.07276,-3.78469 c -0.9881,-3.486 -1.14172,-3.76892 -1.94645,-3.58465 -0.78982,0.18087 -0.8519,0.0813 -0.64679,-1.03731 0.30481,-1.66236 -0.59997,-3.23207 -2.72583,-4.72907 -1.4811,-1.04298 -2.06923,-1.18951 -4.640508,-1.15626 -5.259538,0.068 -8.051912,1.99438 -11.448135,7.89766 -1.487765,2.58603 -2.722036,7.00508 -2.722036,9.7457 0,1.54884 -0.129204,1.9388 -0.644099,1.94399 -0.603899,0.006 -1.052082,0.25513 -2.991613,1.6623 -0.636175,0.46156 -0.786143,0.46156 -0.808891,0 z"
           style="fill:#000000;stroke-width:0.40282366" />
        <path
           inkscape:connector-curvature="0"
           id="path3795"
           d="m 70.941232,217.70055 c -2.970915,-16.75916 -7.29707,-30.66972 -13.531621,-43.51029 l -1.485741,-3.06001 0.853965,-0.68743 c 0.46968,-0.37808 1.456393,-1.12163 2.192695,-1.65233 l 1.338728,-0.96489 3.047479,7.30307 c 3.345665,8.01766 6.235006,16.25019 8.326492,23.72448 1.289781,4.60925 4.230165,17.84325 4.230165,19.03901 0,0.49653 -3.467467,3.21036 -4.115528,3.22105 -0.138015,0.002 -0.523501,-1.53342 -0.856634,-3.41266 z"
           style="fill:#000000;stroke-width:0.40282366" />
        <path
           inkscape:connector-curvature="0"
           id="path3797"
           d="m 98.61551,198.87 c -0.3403,-0.40764 -0.61913,-0.97497 -0.61963,-1.26075 -4.8e-4,-0.28578 -0.16706,-3.19792 -0.37016,-6.47141 -0.50746,-8.17905 -1.31109,-15.01146 -2.59139,-22.03168 l -1.08324,-5.93973 1.93083,-2.34654 1.93083,-2.34655 0.64594,3.21622 c 1.34393,6.69164 2.46063,14.98903 3.22056,23.92975 0.43246,5.08793 0.96047,9.50219 1.17336,9.80947 0.8671,1.25148 2.18556,0.57902 5.02302,-2.56187 2.62443,-2.90506 4.86968,-4.58427 5.69105,-4.25631 0.67743,0.27048 -5.10375,6.16699 -8.19803,8.36157 -3.52035,2.49676 -5.73383,3.11881 -6.75314,1.89783 z"
           style="fill:#000000;stroke-width:0.40282366" />
        <path
           inkscape:connector-curvature="0"
           id="path3801"
           d="m 140.19884,183.3123 c -0.0923,-0.18186 -1.0246,-4.19934 -2.07171,-8.92772 -3.96358,-17.89801 -6.44583,-27.00293 -11.41848,-41.88314 l -1.54698,-4.62918 1.7694,-1.86905 c 0.97317,-1.02798 1.88094,-1.72235 2.01728,-1.54306 0.48122,0.63285 4.70406,13.64448 6.75917,20.82667 1.14481,4.00094 3.46685,13.02786 5.16008,20.05982 1.69323,7.03196 3.25838,13.3476 3.47811,14.03478 0.50741,1.58691 0.36238,1.83822 -1.82792,3.16773 -1.99188,1.20906 -2.07816,1.23746 -2.31895,0.76315 z"
           style="fill:#000000;stroke-width:0.40282366" />
      </g>
      <path
         inkscape:connector-curvature="0"
         d="m 143.31507,164.86308 c 0.31746,-0.14414 0.63501,-0.2881 0.95239,-0.43242 0.92961,-0.42273 3.61975,-1.89066 2.73403,-1.38235 -13.7226,7.87526 -8.04818,4.69741 -4.33628,1.99303 3.95939,-3.04665 7.87516,-6.14647 11.91861,-9.08169 4.2362,-2.94657 8.45252,-5.92024 12.64298,-8.93152 2.68925,-1.84312 5.2212,-3.89634 7.8317,-5.84522 0.73954,-0.49105 1.38256,-1.09523 2.01313,-1.71391 0,0 10.34474,-4.26073 10.34474,-4.26073 v 0 c -0.67804,0.63825 -1.25457,1.37088 -2.03374,1.89698 -2.74487,1.87405 -5.23929,4.09106 -8.01964,5.91928 -4.23234,3.00354 -8.44849,6.02927 -12.73173,8.96066 -4.03,2.89233 -7.93125,5.95025 -11.81815,9.03152 -5.70045,4.23177 -11.76568,8.0756 -18.36451,10.73469 0,0 8.86647,-6.88832 8.86647,-6.88832 z"
         id="path3853"
         style="fill:#000000;stroke-width:0.26458332" />
      <path
         inkscape:connector-curvature="0"
         d="m 156.66682,116.28782 c 1.32263,5.29621 2.65728,10.56039 4.0856,15.79088 2.81131,10.19759 5.70397,20.35695 8.7418,30.3586 2.69918,8.90218 5.55735,17.6388 8.46043,26.31015 1.51992,4.78666 3.27446,9.17882 5.02641,13.60173 1.13116,2.7326 2.18088,5.61931 3.29159,8.38529 0.60179,1.75847 1.31962,3.24243 1.99879,4.84267 0.70698,1.53324 1.25844,3.32658 1.86836,5.02469 0.51714,1.69049 1.16614,3.16186 1.76243,4.72656 0.098,0.28789 0.19598,0.5758 0.29406,0.86366 0,0 -3.7491,8.24305 -3.7491,8.24305 v 0 c -0.0825,-0.25122 -0.16497,-0.50243 -0.24745,-0.75365 -0.59609,-1.59182 -1.26371,-3.06782 -1.78453,-4.77731 -0.58663,-1.6502 -1.11235,-3.39742 -1.80142,-4.87301 -0.6843,-1.63006 -1.41788,-3.13314 -2.01128,-4.9403 -1.09038,-2.81307 -2.12058,-5.7371 -3.25344,-8.48053 -1.75967,-4.52588 -3.51058,-9.03481 -5.00931,-13.9442 -2.84625,-8.80871 -5.702,-17.60648 -8.39238,-26.58439 -3.03471,-10.00108 -5.96354,-20.10826 -8.85688,-30.23743 -0.3947,-1.3821 -1.58937,-5.54118 -2.0024,-7.07407 -0.75944,-2.81855 -1.39706,-5.73265 -2.26847,-8.4661 0,0 3.84714,-8.01628 3.84714,-8.01628 z"
         id="path3859"
         style="fill:#000000;stroke-width:0.22600293" />
    </g>
  </g>
</svg>
